<mxfile host="app.diagrams.net" modified="2024-06-24T18:17:23.902Z" agent="Mozilla/5.0 (Windows NT 10.0; Win64; x64) AppleWebKit/537.36 (KHTML, like Gecko) Chrome/126.0.0.0 Safari/537.36" version="24.6.2" etag="VC7vXilRN3uMM0LjBbBD" type="github">
  <diagram name="Page-1" id="kE968RPMexl8P4woOGAQ">
    <mxGraphModel>
      <root>
        <mxCell id="0" />
        <mxCell id="1" parent="0" />
      </root>
    </mxGraphModel>
  </diagram>
</mxfile>
